<?xml version="1.0" encoding="UTF-8"?><svg width="246px" height="128px" viewBox="0 0 246 128" version="1.1" xmlns="http://www.w3.org/2000/svg" xmlns:xlink="http://www.w3.org/1999/xlink"><title>aris</title>
<path d="M226.2 122.9 228.9 119.2 226.2 115.45 228.25 115.45 230.15 118.1 232.05 115.45 234.1 115.45 231.4 119.2 234.1 122.9 232.05 122.9 230.15 120.25 228.25 122.9 226.2 122.9M208.45 115.45 210.45 115.45 210.45 117.05 208.45 117.05 208.45 120.3Q208.45
 120.85 208.65 121.05 208.9 121.25 209.45 121.25L210.4 121.25 210.4 122.9 209.1 122.9Q207.9 122.9 207.2 122.35 206.5 121.75 206.5 120.3L206.5 117.05 205.25 117.05 205.25 115.45 206.5 115.45 206.75 113.45 208.45 113.45 208.45 115.45M221.1 116.05
Q222 116.85 222 118.3L222 122.9 220.35 122.9 220.2 121.7Q219.85 122.3 219.25 122.7 218.65 123.1 217.75 123.1 216.8 123.1 216.15 122.8 215.55 122.45 215.25 121.95 214.95 121.45 214.95 120.85 214.95 119.8 215.75 119.15 216.55 118.5 218.2 118.5
L220.1 118.5 220.1 118.3Q220.1 117.55 219.65 117.2 219.2 116.85 218.55 116.85 218 116.85 217.55 117.1 217.1 117.4 217 117.95L215.15 117.95Q215.2 117.15 215.7 116.55 216.15 115.95 216.9 115.6 217.65 115.3 218.6 115.3 220.15 115.3 221.1 116.05
M217.3 121.35Q217.65 121.6 218.2 121.6 219 121.6 219.45 121.05 219.9 120.5 220.05 119.7L218.4 119.7Q217.65 119.7 217.3 120 217 120.25 217 120.65 217 121.1 217.3 121.35M189.2 115.45 184.5 126.2 182.45 126.2 184.2 122.4 183.75 122.4 180.85 115.45
 182.9 115.45 185 120.7 187.2 115.45 189.2 115.45M200.1 116.15Q200.85 117 200.85 118.7L200.85 122.9 198.95 122.9 198.95 118.9Q198.95 117.9 198.55 117.4 198.15 116.9 197.35 116.9 196.55 116.9 196 117.45 195.5 118.05 195.5 119.05L195.5 122.9 193.55
 122.9 193.55 115.45 195.25 115.45 195.4 116.7Q195.75 116.05 196.4 115.65 197.05 115.3 197.95 115.3 199.35 115.3 200.1 116.15M171.4 115.1Q171.4 115.6 171.75 115.9 172.05 116.25 172.65 116.45 173.2 116.65 173.95 116.9 174.75 117.15 175.35 117.5
 176 117.9 176.4 118.45 176.8 119.05 176.8 120 176.8 120.8 176.35 121.5 175.95 122.25 175.15 122.65 174.3 123.1 173.1 123.1 171.95 123.1 171.05 122.7 170.2 122.3 169.65 121.55 169.15 120.8 169.15 119.75L171.15 119.75Q171.2 120.45 171.7 120.95
 172.2 121.45 173.1 121.45 173.85 121.45 174.3 121.1 174.75 120.75 174.75 120.1 174.75 119.5 174.35 119.1 173.95 118.75 173.3 118.55 172.65 118.3 171.9 118.05 170.7 117.65 170.05 116.95 169.4 116.3 169.4 115.2 169.4 114.3 169.85 113.6 170.3
 112.95 171.1 112.6 171.9 112.2 172.9 112.2 174 112.2 174.8 112.6 175.6 112.95 176.05 113.65 176.5 114.3 176.55 115.25L174.45 115.25Q174.45 114.7 174.05 114.25 173.65 113.85 172.9 113.85 172.25 113.85 171.85 114.15 171.4 114.45 171.4 115.1M70.15
 115.75Q71 116.25 71.5 117.15 72 118 72 119.2 72 120.35 71.5 121.2 71 122.1 70.15 122.6 69.25 123.1 68.2 123.1 67.1 123.1 66.25 122.6 65.4 122.1 64.9 121.2 64.4 120.35 64.4 119.2 64.4 118 64.9 117.15 65.4 116.25 66.25 115.75 67.15 115.3 68.2
 115.3 69.3 115.3 70.15 115.75M68.2 116.95Q67.45 116.95 66.9 117.5 66.35 118.05 66.35 119.2 66.35 120.3 66.9 120.85 67.45 121.4 68.2 121.4 68.95 121.4 69.5 120.85 70.05 120.3 70.05 119.2 70.05 118.05 69.5 117.5 68.95 116.95 68.2 116.95M76.8
 122.9 76.8 112.1 78.75 112.1 78.75 122.9 76.8 122.9M48.05 117.05Q48.55 117.9 48.55 118.9 48.55 119.1 48.5 119.25 48.5 119.45 48.5 119.65L42.85 119.65Q42.9 120.5 43.45 121 44 121.5 44.8 121.5 45.35 121.5 45.75 121.25 46.15 121 46.35 120.55L48.3
 120.55Q48.1 121.25 47.6 121.85 47.1 122.4 46.4 122.75 45.7 123.1 44.8 123.1 43.65 123.1 42.8 122.6 41.95 122.1 41.45 121.25 40.95 120.4 40.95 119.25 40.95 118.1 41.4 117.2 41.9 116.3 42.75 115.8 43.65 115.3 44.8 115.3 45.9 115.3 46.75 115.75
 47.6 116.25 48.05 117.05M43.55 117.25Q43 117.65 42.85 118.45L46.55 118.45Q46.55 117.7 46.05 117.3 45.55 116.85 44.8 116.85 44.1 116.85 43.55 117.25M55.25 122.9 52.5 115.45 54.5 115.45 56.4 121.1 58.3 115.45 60.3 115.45 57.55 122.9 55.25 122.9
M28.75 112.4 32.65 112.4Q33.9 112.4 34.7 112.85 35.5 113.25 35.9 114 36.35 114.7 36.35 115.6 36.35 116.55 35.85 117.35 35.3 118.15 34.25 118.5L36.45 122.9 34.25 122.9 32.3 118.75 30.7 118.75 30.7 122.9 28.75 122.9 28.75 112.4M32.5 117.35Q33.45
 117.35 33.9 116.9 34.35 116.4 34.35 115.65 34.35 114.9 33.9 114.45 33.5 114 32.5 114L30.7 114 30.7 117.35 32.5 117.35M7.85 122.9 11.7 112.4 13.85 112.4 17.7 122.9 15.65 122.9 14.8 120.45 10.7 120.45 9.85 122.9 7.85 122.9M11.25 118.95 14.3 118.95
 12.75 114.6 11.25 118.95M150.6 115.45 152.3 115.45 152.45 116.7Q152.8 116.05 153.45 115.65 154.1 115.3 155 115.3 156.4 115.3 157.15 116.15 157.9 117 157.9 118.7L157.9 122.9 156 122.9 156 118.9Q156 117.9 155.6 117.4 155.2 116.9 154.4 116.9 153.6
 116.9 153.05 117.45 152.55 118.05 152.55 119.05L152.55 122.9 150.6 122.9 150.6 115.45M143.6 122.9 143.6 112.4 145.55 112.4 145.55 122.9 143.6 122.9M128.5 116.9Q127.7 116.9 127.15 117.45 126.65 118.05 126.65 119.05L126.65 122.9 124.7 122.9 124.7
 115.45 126.4 115.45 126.55 116.7Q126.9 116.05 127.55 115.65 128.2 115.3 129.1 115.3 130.5 115.3 131.25 116.15 132 117 132 118.7L132 122.9 130.1 122.9 130.1 118.9Q130.1 117.9 129.7 117.4 129.3 116.9 128.5 116.9M106.45 114.3Q105.95 114.3 105.6
 114 105.25 113.65 105.25 113.2 105.25 112.7 105.6 112.4 105.95 112.1 106.45 112.1 107 112.1 107.3 112.4 107.65 112.7 107.65 113.2 107.65 113.65 107.3 114 107 114.3 106.45 114.3M107.4 115.45 107.4 122.9 105.5 122.9 105.5 115.45 107.4 115.45
M119.4 117.15Q119.9 118 119.9 119.2 119.9 120.35 119.4 121.2 118.9 122.1 118.05 122.6 117.15 123.1 116.1 123.1 115 123.1 114.15 122.6 113.3 122.1 112.8 121.2 112.3 120.35 112.3 119.2 112.3 118 112.8 117.15 113.3 116.25 114.15 115.75 115.05 115.3
 116.1 115.3 117.2 115.3 118.05 115.75 118.9 116.25 119.4 117.15M114.8 117.5Q114.25 118.05 114.25 119.2 114.25 120.3 114.8 120.85 115.35 121.4 116.1 121.4 116.85 121.4 117.4 120.85 117.95 120.3 117.95 119.2 117.95 118.05 117.4 117.5 116.85 116.95
 116.1 116.95 115.35 116.95 114.8 117.5M91 115.45 91 122.9 89.3 122.9 89.15 121.65Q88.8 122.3 88.15 122.7 87.5 123.1 86.6 123.1 85.2 123.1 84.45 122.2 83.7 121.35 83.7 119.65L83.7 115.45 85.6 115.45 85.6 119.5Q85.6 120.45 86 120.95 86.4 121.45
 87.25 121.45 88.05 121.45 88.55 120.9 89.05 120.3 89.05 119.3L89.05 115.45 91 115.45M98.7 117.05 98.7 120.3Q98.7 120.85 98.9 121.05 99.15 121.25 99.7 121.25L100.65 121.25 100.65 122.9 99.35 122.9Q98.15 122.9 97.45 122.35 96.75 121.75 96.75
 120.3L96.75 117.05 95.5 117.05 95.5 115.45 96.75 115.45 97 113.45 98.7 113.45 98.7 115.45 100.7 115.45 100.7 117.05 98.7 117.05" fill="#888"/>
 <path d="M173.25 43.3 188.25 43.3 155.75 99.6 140.75 99.6 173.25 43.3M200.7 71.25 191.8 55.9 199.05 43.3 244.55 43.3 237.05 56.3 207.05 56.3 215.7 71.25 200.7 71.25M105.85 63.45 117.45 43.3 162.45 43.3 154.95 56.3 124.95 56.3 113.35 76.45 105.85 63.45
M76.75 56.3 55.3 56.3 47.8 43.3 84.25 43.3 116.75 99.6 76.25 99.6 68.75 86.65 94.25 86.65 76.75 56.3" fill="#666"/>
<path d="M185.8 22.6 200.8 22.6 193.05 36.05 178.05 36.05 185.8 22.6M215.7 71.25 230.7 71.25 239.55 86.65 232.05 99.6 231.8 99.2 231.55 99.6 181.55 99.6 189.05 86.65 224.05 86.65 224.3 86.2 215.7 71.25M89.9 0 82.4 13 65 13 22.5 86.65 45.3 86.65 37.8
 99.6 0 99.6 57.5 0 89.9 0" fill="#999"/>
</svg>
