<?xml version="1.0" encoding="UTF-8"?><svg width="246px" height="128px" viewBox="0 0 246 128" version="1.1" xmlns="http://www.w3.org/2000/svg" xmlns:xlink="http://www.w3.org/1999/xlink"><title>aris</title>
<style>
.invf { fill: #333; }
@media (prefers-color-scheme: dark) { .invf { fill: #fff; } }
</style>
<path d="M223.65 121.05 226.1 124.4 224.25 124.4 222.55 122.05 220.85 124.4 219 124.4 221.45 121.05 219 117.7 220.85 117.7 222.55 120.1 224.25 117.7 226.1 117.7 223.65 121.05M204.15 119.15 202.3 119.15 202.3 122.1Q202.3 122.55 202.5 122.75 202.75 122.95
 203.25 122.95L204.1 122.95 204.1 124.4 202.9 124.4Q201.85 124.4 201.25 123.9 200.6 123.35 200.6 122.05L200.6 119.15 199.45 119.15 199.45 117.7 200.6 117.7 200.8 115.9 202.3 115.9 202.3 117.7 204.15 117.7 204.15 119.15M210.35 119.95 208.7 119.95
Q208.75 119.2 209.2 118.65 209.6 118.1 210.3 117.85 210.95 117.55 211.8 117.55 213.2 117.55 214.05 118.25 214.85 118.95 214.85 120.3L214.85 124.4 213.4 124.4 213.25 123.3Q212.95 123.85 212.4 124.2 211.85 124.55 211.05 124.55 210.15 124.55 209.6
 124.3 209.05 124 208.8 123.55 208.5 123.1 208.5 122.55 208.5 121.6 209.25 121.05 210 120.45 211.45 120.45L213.15 120.45 213.15 120.3Q213.15 119.6 212.75 119.25 212.35 118.95 211.8 118.95 211.25 118.95 210.85 119.2 210.45 119.45 210.35 119.95
M210.65 123Q210.95 123.2 211.45 123.2 212.15 123.2 212.6 122.75 213 122.25 213.1 121.55L211.65 121.55Q210.95 121.55 210.65 121.8 210.35 122.05 210.35 122.4 210.35 122.8 210.65 123M190.35 120.95 190.35 124.4 188.65 124.4 188.65 117.7 190.15 117.7
 190.3 118.85Q190.6 118.25 191.2 117.9 191.75 117.55 192.55 117.55 193.8 117.55 194.5 118.3 195.2 119.1 195.2 120.6L195.2 124.4 193.45 124.4 193.45 120.8Q193.45 119.9 193.1 119.45 192.75 119 192 119 191.3 119 190.8 119.5 190.35 120 190.35 120.95
M184.4 117.7 180.15 127.35 178.3 127.35 179.85 123.95 179.45 123.95 176.85 117.7 178.75 117.7 180.6 122.4 182.55 117.7 184.4 117.7M169.45 114.8Q170.4 114.8 171.1 115.15 171.8 115.45 172.25 116.05 172.65 116.7 172.65 117.5L170.8 117.5Q170.8 117
 170.45 116.65 170.05 116.25 169.4 116.25 168.85 116.25 168.45 116.5 168.05 116.8 168.05 117.35 168.05 117.85 168.35 118.1 168.65 118.4 169.15 118.6 169.7 118.75 170.35 119 171.05 119.25 171.65 119.55 172.2 119.9 172.55 120.4 172.9 120.95 172.9
 121.8 172.9 122.5 172.55 123.15 172.15 123.8 171.4 124.2 170.7 124.55 169.6 124.55 168.55 124.55 167.75 124.2 166.95 123.85 166.5 123.2 166.05 122.5 166.05 121.55L167.85 121.55Q167.9 122.2 168.35 122.65 168.8 123.1 169.6 123.1 170.25 123.1
 170.7 122.8 171.1 122.45 171.1 121.9 171.1 121.3 170.7 121 170.35 120.7 169.75 120.45 169.15 120.25 168.5 120.05 167.4 119.65 166.85 119.05 166.25 118.45 166.25 117.5 166.25 116.65 166.65 116.05 167.05 115.45 167.8 115.1 168.5 114.8 169.45
 114.8M62.5 117.7 64.3 117.7 61.85 124.4 59.75 124.4 57.3 117.7 59.1 117.7 60.8 122.75 62.5 117.7M68.25 121.05Q68.25 120 68.7 119.25 69.2 118.45 69.95 118 70.75 117.55 71.7 117.55 72.65 117.55 73.45 118 74.2 118.45 74.65 119.25 75.1 120 75.1
 121.05 75.1 122.1 74.65 122.9 74.2 123.65 73.45 124.1 72.65 124.55 71.7 124.55 70.7 124.55 69.95 124.1 69.15 123.65 68.7 122.9 68.25 122.1 68.25 121.05M70.05 121.05Q70.05 122.05 70.5 122.55 71 123.05 71.7 123.05 72.35 123.05 72.85 122.55 73.35
 122.05 73.35 121.05 73.35 120.05 72.85 119.55 72.35 119.05 71.7 119.05 71 119.05 70.5 119.55 70.05 120.05 70.05 121.05M41.75 116.35Q42.1 117.05 42.1 117.85 42.1 118.7 41.65 119.4 41.2 120.1 40.25 120.45L42.2 124.4 40.25 124.4 38.5 120.7 37.05
 120.7 37.05 124.4 35.3 124.4 35.3 114.95 38.8 114.95Q39.9 114.95 40.65 115.35 41.4 115.7 41.75 116.35M48.3 120.4 51.65 120.4Q51.6 119.75 51.15 119.35 50.7 118.95 50.05 118.95 49.4 118.95 48.95 119.3 48.45 119.65 48.3 120.4M46.55 121.1Q46.55
 120.05 47 119.25 47.45 118.45 48.2 118 49 117.55 50.05 117.55 51.05 117.55 51.8 117.95 52.55 118.4 52.95 119.15 53.4 119.9 53.4 120.8 53.4 120.95 53.4 121.15 53.4 121.3 53.35 121.45L48.25 121.45Q48.35 122.25 48.8 122.7 49.3 123.15 50 123.15
 50.55 123.15 50.9 122.9 51.25 122.65 51.45 122.3L53.2 122.3Q53 122.95 52.55 123.45 52.1 123.95 51.5 124.25 50.85 124.55 50.05 124.55 49 124.55 48.25 124.15 47.45 123.7 47 122.9 46.55 122.15 46.55 121.1M79.8 114.7 81.5 114.7 81.5 124.4 79.8
 124.4 79.8 114.7M20.3 116.95 18.9 120.85 21.65 120.85 20.3 116.95M38.65 116.4 37.05 116.4 37.05 119.4 38.7 119.4Q39.55 119.4 39.95 119 40.35 118.55 40.35 117.9 40.35 117.2 39.95 116.8 39.55 116.4 38.65 116.4M15.85 124.4 19.3 114.95 21.25 114.95
 24.7 124.4 22.9 124.4 22.1 122.2 18.45 122.2 17.65 124.4 15.85 124.4M150.45 120.95 150.45 124.4 148.75 124.4 148.75 117.7 150.25 117.7 150.4 118.85Q150.7 118.25 151.3 117.9 151.85 117.55 152.65 117.55 153.9 117.55 154.6 118.3 155.3 119.1 155.3
 120.6L155.3 124.4 153.55 124.4 153.55 120.8Q153.55 119.9 153.2 119.45 152.85 119 152.1 119 151.4 119 150.9 119.5 150.45 120 150.45 120.95M143.85 114.95 143.85 124.4 142.1 124.4 142.1 114.95 143.85 114.95M126.15 118.85Q126.45 118.25 127.05 117.9
 127.6 117.55 128.4 117.55 129.65 117.55 130.35 118.3 131.05 119.1 131.05 120.6L131.05 124.4 129.3 124.4 129.3 120.8Q129.3 119.9 128.95 119.45 128.6 119 127.85 119 127.15 119 126.65 119.5 126.2 120 126.2 120.95L126.2 124.4 124.5 124.4 124.5
 117.7 126 117.7 126.15 118.85M107.4 116.65Q106.95 116.65 106.65 116.4 106.35 116.1 106.35 115.65 106.35 115.25 106.65 114.95 106.95 114.7 107.4 114.7 107.9 114.7 108.2 114.95 108.5 115.25 108.5 115.65 108.5 116.1 108.2 116.4 107.9 116.65 107.4
 116.65M101.9 119.15 100.05 119.15 100.05 122.1Q100.05 122.55 100.25 122.75 100.5 122.95 101 122.95L101.85 122.95 101.85 124.4 100.65 124.4Q99.6 124.4 99 123.9 98.35 123.35 98.35 122.05L98.35 119.15 97.2 119.15 97.2 117.7 98.35 117.7 98.55 115.9
 100.05 115.9 100.05 117.7 101.9 117.7 101.9 119.15M108.3 117.7 108.3 124.4 106.55 124.4 106.55 117.7 108.3 117.7M116.4 123.05Q117.05 123.05 117.55 122.55 118.05 122.05 118.05 121.05 118.05 120.05 117.55 119.55 117.05 119.05 116.4 119.05 115.7
 119.05 115.2 119.55 114.75 120.05 114.75 121.05 114.75 122.05 115.2 122.55 115.7 123.05 116.4 123.05M112.95 121.05Q112.95 120 113.4 119.25 113.9 118.45 114.65 118 115.45 117.55 116.4 117.55 117.35 117.55 118.15 118 118.9 118.45 119.35 119.25
 119.8 120 119.8 121.05 119.8 122.1 119.35 122.9 118.9 123.65 118.15 124.1 117.35 124.55 116.4 124.55 115.4 124.55 114.65 124.1 113.85 123.65 113.4 122.9 112.95 122.1 112.95 121.05M91.1 121.15 91.1 117.7 92.8 117.7 92.8 124.4 91.3 124.4 91.15
 123.25Q90.85 123.85 90.25 124.2 89.65 124.55 88.9 124.55 87.65 124.55 86.95 123.8 86.25 123 86.25 121.5L86.25 117.7 88 117.7 88 121.3Q88 122.2 88.35 122.65 88.7 123.1 89.45 123.1 90.15 123.1 90.6 122.6 91.1 122.1 91.1 121.15" class="invf"/>
<path d="M200.7 71.25 191.8 55.9 199.05 43.3 244.55 43.3 237.05 56.3 207.05 56.3 215.7 71.25 200.7 71.25M173.25 43.3 188.25 43.3 155.75 99.6 140.75 99.6 173.25 43.3M105.85 63.45 117.45 43.3 162.45 43.3 154.95 56.3 124.95 56.3 113.35 76.45 105.85 63.45
M76.75 56.3 55.3 56.3 47.8 43.3 84.25 43.3 116.75 99.6 76.25 99.6 68.75 86.65 94.25 86.65 76.75 56.3" class="invf"/>
<path d="M185.8 22.6 200.8 22.6 193.05 36.05 178.05 36.05 185.8 22.6M215.7 71.25 230.7 71.25 239.55 86.65 232.05 99.6 231.8 99.2 231.55 99.6 181.55 99.6 189.05 86.65 224.05 86.65 224.3 86.2 215.7 71.25M89.9 0 82.4 13 65 13 22.5 86.65 45.3 86.65 37.8
 99.6 0 99.6 57.5 0 89.9 0" fill="#999"/>
</svg>
